<svg xmlns="http://www.w3.org/2000/svg" viewBox="0 0 482 261" width="482" height="261">
	<style>
		tspan { white-space:pre }
		.shp0 { fill: #4f5256 } 
		.shp1 { fill: #fdfdfd } 
		.shp2 { fill: #c4a988 } 
	</style>
	<g id="Background">
		<path id="Path 1" class="shp0" d="M197.45 2.22C196.55 3.44 195.85 5.24 195.9 6.22C195.96 7.2 196.34 8.01 196.75 8.02C197.16 8.04 197.84 6.69 198.25 5.02C198.84 2.66 199.49 2.05 201.25 2.25C202.94 2.44 203.58 3.24 203.81 5.5C204.03 7.69 203.15 9.79 200.56 13.25C198.6 15.86 196.66 19.36 196.25 21.02L195.5 24.05C203.64 24.01 206 23.55 206 23C206 22.45 204.31 21.89 202.25 21.75C199.33 21.55 198.55 21.11 198.75 19.75C198.89 18.79 200.57 15.97 202.5 13.5C204.72 10.64 206 7.9 206 6C206 4.35 205.32 2.32 204.5 1.5C203.67 0.67 202.12 0 201.05 0C199.98 0 198.36 1 197.45 2.22ZM215.73 1.25C214.57 2.09 213.82 4.48 213.43 8.5C213.11 11.8 213.24 16.3 213.72 18.5C214.4 21.59 215.23 22.73 217.4 23.5C219.83 24.37 220.46 24.17 222.14 22C223.69 20 224.08 17.94 224.04 11.75C224.01 5.37 223.65 3.65 222 2C220.9 0.9 219.43 0 218.72 0C218.02 0 216.67 0.56 215.73 1.25ZM233 2C231.9 3.1 231 4.67 231 5.5C231 6.32 231.45 7.22 232 7.5C232.55 7.77 233.22 6.65 233.5 5C233.9 2.6 234.45 2.05 236.25 2.25C237.95 2.44 238.57 3.24 238.8 5.5C239.02 7.73 238.05 9.91 235 14C232.7 17.1 231.04 20.37 231.21 21.5C231.45 23.14 232.37 23.55 236.25 23.75C238.92 23.89 241 23.56 241 23C241 22.45 239.2 22 237 22C234.47 22 233 21.54 232.99 20.75C232.99 20.06 234.79 17.14 236.99 14.25C239.91 10.43 241 8.04 241 5.5C241 3 240.43 1.71 239 1C237.9 0.45 236.55 0 236 0C235.45 0 234.1 0.9 233 2ZM249.47 1.83C247.95 3.35 247.67 5.11 247.82 12.33C247.95 18.51 248.43 21.43 249.5 22.5C250.32 23.32 251.87 24 252.93 24C253.99 24 255.56 23.32 256.43 22.5C257.63 21.35 258 18.88 258 12C258 5.33 257.61 2.61 256.5 1.5C255.67 0.67 254.17 0 253.15 0C252.13 0 250.47 0.82 249.47 1.83Z" />
		<path id="Path 2" class="shp1" d="M216.85 3.28C216.01 4.04 215.66 7.1 215.8 12.7C215.95 19.06 216.35 21.12 217.5 21.5C218.32 21.77 219.45 21.77 220 21.5C220.56 21.22 220.98 17.08 220.95 12.11C220.92 5.43 220.56 3.08 219.51 2.69C218.73 2.39 217.54 2.66 216.85 3.28ZM251.91 3.02C250.89 3.68 250.5 6.13 250.5 11.91C250.5 16.77 250.97 20.41 251.71 21.2C252.7 22.26 253.21 22.23 254.5 21C255.64 19.92 256.14 17.35 256.28 11.87C256.42 5.91 256.12 4.01 254.9 3.18C253.93 2.52 252.79 2.46 251.91 3.02Z" />
		<path id="Path 3" class="shp2" d="M221.35 12C221.35 16.67 221.52 18.47 221.73 16C221.94 13.52 221.94 9.7 221.73 7.5C221.52 5.3 221.35 7.32 221.35 12ZM258.35 12C258.35 16.67 258.52 18.47 258.73 16C258.94 13.52 258.94 9.7 258.73 7.5C258.52 5.3 258.35 7.32 258.35 12ZM5.5 8.67C5.04 9.03 4.74 10.83 4.83 12.67L5 16L149 16L149 8C38.43 8 5.96 8.3 5.5 8.67ZM311.01 11.99L311 16L455 16L454.5 8.5L311.01 7.99" />
		<path id="Path 4" class="shp0" d="M19.45 63.72C16.67 64.7 12.73 66.74 10.7 68.25C8.31 70.03 5.85 73.38 3.75 77.73L0.5 84.46C0.5 170.31 0.64 173.86 2.4 178.5C3.45 181.25 5.7 185.25 7.4 187.39C9.11 189.53 12.75 192.46 15.5 193.89C20 196.24 21.59 196.5 31.5 196.5C41.42 196.5 42.99 196.24 47.5 193.89C50.25 192.45 53.8 189.75 55.39 187.89C56.99 186.02 59.23 182.47 60.39 180C62.41 175.68 62.51 173.76 62.81 132.5C63.1 93.62 62.96 88.88 61.34 83C60.33 79.36 58.11 74.63 56.27 72.25C54.15 69.5 50.97 67.04 47.25 65.28C42.68 63.12 39.75 62.5 33 62.25C26.78 62.03 23.14 62.43 19.45 63.72ZM336.97 62.87C335.58 63.32 332.54 64.65 330.22 65.84C327.9 67.03 324.76 69.59 323.25 71.52C321.74 73.46 319.61 77.17 318.51 79.77C316.66 84.18 316.51 87.26 316.2 125.5C315.99 152.78 316.25 168.68 317 173C317.62 176.57 319.17 181.3 320.44 183.5C321.71 185.7 324.38 188.96 326.37 190.75C328.37 192.54 332.36 194.68 335.25 195.51C338.14 196.34 343.42 197.02 347 197.02C350.57 197.02 355.86 196.34 358.75 195.51C361.64 194.68 365.63 192.54 367.63 190.75C369.62 188.96 372.28 185.7 373.53 183.5C374.78 181.3 376.3 177.14 376.9 174.25C377.52 171.29 378 158.73 378 145.5L378 122L349 122L349 141L358.5 141.5C358.5 162.42 358.16 169.74 357.75 171.25C357.34 172.76 356.1 174.9 355 176C353.52 177.48 351.64 178.01 347.75 178.03C343.38 178.05 342.08 177.61 340 175.45L337.5 172.84L337.5 86.05C342.11 81.43 343.84 80.73 346.66 80.72C348.77 80.72 351.51 81.01 352.75 81.36C353.99 81.71 355.75 83.46 356.66 85.25C357.76 87.41 358.43 91.68 358.64 98L358.97 107.5L378.5 108.09C377.48 89.81 376.48 82.47 375.61 80C374.74 77.52 372.52 73.7 370.66 71.5C368.8 69.3 365.08 66.39 362.39 65.04C358.47 63.08 355.71 62.54 348.5 62.32C343.55 62.18 338.36 62.42 336.97 62.87Z" />
		<path id="Path 5" class="shp2" d="M99.47 129.5C99.47 166.35 99.6 181.2 99.75 162.5C99.9 143.8 99.9 113.65 99.75 95.5C99.6 77.35 99.47 92.65 99.47 129.5Z" />
		<path id="Path 6" class="shp0" d="M100.03 129.47L100 196L117.08 195.5C116.96 124.97 117.27 104.87 117.71 105.33C118.14 105.78 121.87 126.26 126 150.83L133.5 195.5C147.45 195.91 151.81 195.68 152.2 195.26C152.58 194.84 155.64 176.5 159 154.5C162.35 132.5 165.41 112.13 165.8 109.24C166.18 106.35 166.84 103.98 167.25 103.99C167.66 103.99 168 124.7 168 150L168 196L187 196L187 63C164.52 63 158 63.34 158 63.75C158.01 64.16 155.06 84.3 151.47 108.5C147.87 132.7 144.55 153.4 144.08 154.5C143.41 156.09 143.09 155.48 142.49 151.5C142.08 148.75 138.75 127.82 135.09 105L128.43 63.5L100.06 62.95M225 129.5L225 196L282 196L282 177L246 177L246 138L274 138L274 119L246 119L246 82L282 82L282 63L225 63M430.49 64.25C430.23 64.94 426.61 87.1 422.43 113.5C418.26 139.9 413.64 169.06 412.17 178.31C410.7 187.55 409.72 195.33 410 195.58C410.27 195.84 414.44 196.04 419.25 196.03L428 196C428.87 190.96 429.67 185.67 430.33 181L431.53 172.5L458 172C459.64 184.79 460.43 190.2 460.81 192.27L461.5 196.04L482 196C481.24 191.74 476.73 163.5 471.5 130.5C466.27 97.5 461.76 68.81 461.49 66.75L461 63C434.87 63 430.83 63.33 430.49 64.25Z" />
		<path id="Path 7" class="shp1" d="M25.85 82.13C24.95 82.72 23.48 84.73 22.6 86.6C21.22 89.54 21 95.27 21.01 128.75C21.01 151.24 21.43 169.07 22.01 171.25C22.55 173.31 24.01 175.68 25.25 176.51C26.49 177.34 29.41 178.01 31.75 178.01C34.81 178 36.77 177.32 38.75 175.59L41.5 173.17L41.5 85.83C36.75 81.66 34.85 81.01 31.75 81.03C29.41 81.05 26.76 81.54 25.85 82.13ZM443.98 91.5C443.99 92.05 441.98 105.77 439.5 122C437.02 138.22 434.99 152.06 435 152.75C435 153.66 437.57 154 444.5 154C453.69 154 454 153.93 453.98 151.75C453.96 150.51 451.94 136.45 449.47 120.5C447.01 104.55 444.76 91.27 444.47 91C444.18 90.72 443.96 90.95 443.98 91.5Z" />
		<path id="Path 9" class="shp0" d="M167.5 237.57C166.2 238.81 165.87 241.03 165.93 248.07C165.98 254.6 166.4 257.4 167.5 258.5C168.32 259.32 169.87 260 170.93 260C171.99 260 173.56 259.32 174.43 258.5C175.29 257.67 176.01 255.54 176.02 253.75C176.03 251.69 175.69 250.87 175.1 251.5C174.59 252.05 174.02 253.62 173.83 254.99C173.62 256.55 172.75 257.6 171.5 257.81C170.4 258 169.17 257.55 168.77 256.82C168.36 256.1 168.03 252.12 168.03 248C168.03 243.87 168.36 239.9 168.77 239.18C169.17 238.45 170.4 238 171.5 238.19C172.85 238.41 173.58 239.4 173.75 241.26C173.89 242.77 174.45 244 175 244C175.55 244 176 242.87 176 241.5C176 240.12 175.32 238.32 174.5 237.5C173.67 236.67 172.13 236 171.07 236C170.01 236 168.4 236.71 167.5 237.57ZM183 248L183 260C189.97 260 192 259.55 192 259C192 258.45 190.42 258 188.5 258L185 258C185 240.33 184.61 236 184 236C183.39 236 183 240.67 183 248Z" />
		<path id="Path 10" class="shp2" d="M185.21 246.75L185 258C191.05 258.39 192.62 258.16 192.4 257.75C192.18 257.34 190.65 257 189 257L186 257L185.42 235.5" />
		<path id="Path 11" class="shp0" d="M200.5 237.57C199.2 238.81 198.87 241.03 198.93 248.07C198.98 254.6 199.4 257.4 200.5 258.5C201.32 259.32 202.67 260 203.5 260C204.32 260 205.9 259.55 207 259C208.8 258.1 209 257 209 248C209 239 208.8 237.9 207 237C205.9 236.45 204.36 236 203.57 236C202.79 236 201.4 236.71 200.5 237.57Z" />
		<path id="Path 12" class="shp2" d="M214.69 236.75C214.33 237.16 214.26 237.84 214.52 238.25C214.79 238.66 215.9 239 217 239C218.83 239 219.03 239.77 219.3 248.25L219.61 257.5C219.5 239.08 219.37 238.48 217.35 238.13C215.51 237.82 215.44 237.65 216.85 236.96C218.31 236.24 218.31 236.13 216.92 236.07C216.05 236.03 215.04 236.34 214.69 236.75Z" />
		<path id="Path 13" class="shp0" d="M216.77 236.99C215.27 237.67 215.34 237.82 217.27 238.13C219.39 238.48 219.51 238.99 219.65 248.5C219.74 254 220.19 258.5 220.65 258.5C221.12 258.5 221.57 254 221.65 248.5C221.8 238.92 221.9 238.47 224.15 237.85C225.44 237.49 226.27 237.11 226 237C225.72 236.89 223.92 236.67 222 236.51C220.07 236.35 217.72 236.57 216.77 236.99Z" />
		<path id="Path 14" class="shp2" d="M232.39 248C232.39 254.87 232.55 257.57 232.74 254C232.94 250.42 232.94 244.8 232.74 241.5C232.55 238.2 232.39 241.12 232.39 248Z" />
		<path id="Path 15" class="shp0" d="M233.1 247.94C233.04 255.68 233.36 259.82 234 259.5C234.55 259.22 235 256.75 235 254C235 249.11 235.07 249 238 249C240.97 249 241 249.06 241 254.5C241 257.52 241.45 260 242 260C242.61 260 243 255.33 243 248C243 240.33 242.64 236.18 242 236.5C241.45 236.77 241 239.25 241 242C241 246.89 240.93 247 238 247C235.06 247 235 246.9 235.1 242.06C235.16 239.34 234.75 236.84 234.2 236.5C233.56 236.1 233.17 240.18 233.1 247.94Z" />
		<path id="Path 16" class="shp2" d="M243.39 248C243.39 254.87 243.55 257.57 243.74 254C243.94 250.42 243.94 244.8 243.74 241.5C243.55 238.2 243.39 241.12 243.39 248ZM250.39 248C250.39 254.87 250.55 257.57 250.74 254C250.94 250.42 250.94 244.8 250.74 241.5C250.55 238.2 250.39 241.12 250.39 248Z" />
		<path id="Path 17" class="shp0" d="M251.1 247.94C251.04 255.38 251.38 260 252 260C252.6 260 253.04 255.45 253.1 248.56C253.16 241.9 252.79 236.86 252.2 236.5C251.56 236.1 251.17 240.18 251.1 247.94ZM260.09 247.93C260.03 255.37 260.38 260 261 260C261.58 260 262.11 256.08 262.25 250.75C262.39 245.66 262.81 242.17 263.18 243C263.56 243.82 264.91 247.84 266.18 251.93C267.46 256.01 269.06 259.5 269.75 259.68C270.7 259.92 271 257.21 271 248.5C271 241.83 270.58 236.79 270 236.5C269.38 236.19 268.9 239.16 268.75 244.25L268.5 252.5C264.28 239.76 262.59 236.37 261.69 236.18C260.41 235.9 260.17 237.71 260.09 247.93ZM280.58 237.08C278.87 237.99 278.68 239.16 278.81 247.8C278.91 254.11 279.41 257.94 280.23 258.77C280.93 259.46 282.4 260.05 283.5 260.06C284.6 260.08 286.04 259.51 286.71 258.79C287.37 258.08 288.22 255.47 288.59 253C289.17 249.16 288.99 248.39 287.38 247.73C286.34 247.3 285.05 247.4 284.5 247.95C283.83 248.62 284.08 249.13 285.25 249.48C286.24 249.77 287.01 250.98 287.02 252.25C287.03 253.49 286.46 255.36 285.77 256.4C284.95 257.63 283.88 258.07 282.75 257.65C281.26 257.1 281 255.66 281 248C281 240.89 281.31 238.9 282.5 238.5C283.32 238.22 284.63 238.51 285.41 239.12C286.18 239.74 286.86 241.09 286.91 242.12C286.96 243.16 287.45 243.77 288 243.5C288.55 243.22 288.73 241.99 288.4 240.75C288.07 239.51 287.06 237.93 286.15 237.23C285.24 236.54 284.05 235.99 283.5 236.01C282.95 236.04 281.64 236.52 280.58 237.08Z" />
		<path id="Path 18" class="shp1" d="M203 238.98C201.87 239.69 201.5 241.9 201.5 247.91C201.5 253.2 201.95 256.34 202.82 257.2C203.9 258.27 204.39 258.14 205.58 256.5C206.5 255.24 207.03 252.09 207.03 248C207.03 244.33 206.48 240.75 205.77 239.77C204.87 238.54 204.06 238.31 203 238.98Z" />
		<path id="Path 19" class="shp2" d="M278.36 248C278.36 253.22 278.53 255.25 278.74 252.5C278.94 249.75 278.94 245.47 278.74 243C278.53 240.52 278.36 242.77 278.36 248ZM209.35 248C209.35 252.67 209.52 254.47 209.73 252C209.94 249.52 209.94 245.7 209.73 243.5C209.52 241.3 209.35 243.32 209.35 248ZM5.19 246.75L5.5 250.5L149 251L149 243L4.87 243M311 247L311 251L454.5 250.5L455 243L311 243" />
	</g>
</svg>