<svg width="117.41005859375px" height="54.807470703125px" xmlns="http://www.w3.org/2000/svg" viewBox="191.294970703125 47.5962646484375 117.41005859375 54.807470703125" style="background: rgba(0, 0, 0, 0);" preserveAspectRatio="xMidYMid"><defs><filter id="editing-hole" x="-100%" y="-100%" width="300%" height="300%"><feFlood flood-color="#ffffff" result="black"></feFlood><feMorphology operator="dilate" radius="2" in="SourceGraphic" result="erode"></feMorphology><feGaussianBlur in="erode" stdDeviation="4" result="blur"></feGaussianBlur><feOffset in="blur" dx="2" dy="2" result="offset"></feOffset><feComposite operator="atop" in="offset" in2="black" result="merge"></feComposite><feComposite operator="in" in="merge" in2="SourceGraphic" result="inner-shadow"></feComposite></filter></defs><g filter="url(#editing-hole)"><g transform="translate(214.78500294685364, 83.16499996185303)"><path d="M6.68-16.15L6.68-16.15Q8.40-16.15 10.25-15.40L10.25-15.40L9.93-13.48L9.58-13.38L9.58-13.38Q8.85-13.93 8.04-14.23L8.04-14.23L8.04-14.23Q7.23-14.53 6.43-14.53L6.43-14.53L6.43-14.53Q5.50-14.53 4.81-14.15L4.81-14.15L4.81-14.15Q4.13-13.78 3.76-13.18L3.76-13.18L3.76-13.18Q3.40-12.58 3.40-11.93L3.40-11.93L3.40-11.93Q3.40-11.25 3.81-10.74L3.81-10.74L3.81-10.74Q4.23-10.23 4.85-9.85L4.85-9.85L4.85-9.85Q5.48-9.47 6.55-8.95L6.55-8.95L6.55-8.95Q7.90-8.33 8.72-7.79L8.72-7.79L8.72-7.79Q9.55-7.25 10.14-6.43L10.14-6.43L10.14-6.43Q10.73-5.60 10.73-4.42L10.73-4.42L10.73-4.42Q10.73-3.18 10.05-2.13L10.05-2.13L10.05-2.13Q9.38-1.07 8.15-0.45L8.15-0.45L8.15-0.45Q6.93 0.18 5.35 0.18L5.35 0.18L5.35 0.18Q4.30 0.18 3.16-0.11L3.16-0.11L3.16-0.11Q2.02-0.40 1.05-0.95L1.05-0.95L1.30-3L1.58-3.13L1.58-3.13Q2.45-2.27 3.51-1.86L3.51-1.86L3.51-1.86Q4.58-1.45 5.55-1.45L5.55-1.45L5.55-1.45Q6.50-1.45 7.24-1.83L7.24-1.83L7.24-1.83Q7.98-2.20 8.36-2.83L8.36-2.83L8.36-2.83Q8.75-3.45 8.75-4.15L8.75-4.15L8.75-4.15Q8.75-5.20 7.95-5.84L7.95-5.84L7.95-5.84Q7.15-6.48 5.53-7.23L5.53-7.23L5.53-7.23Q4.20-7.88 3.40-8.39L3.40-8.39L3.40-8.39Q2.60-8.90 2.02-9.71L2.02-9.71L2.02-9.71Q1.45-10.53 1.45-11.70L1.45-11.70L1.45-11.70Q1.45-12.93 2.11-13.95L2.11-13.95L2.11-13.95Q2.78-14.98 3.96-15.56L3.96-15.56L3.96-15.56Q5.15-16.15 6.68-16.15L6.68-16.15ZM15.93-12.45L15.85-3.90L15.90 0L14.05 0L14.13-3.75L14.05-12.45L15.93-12.45ZM25.50-12.58L25.50-12.58Q27.45-12.58 29.43-11.73L29.43-11.73L28.80-9.93L28.58-9.93L28.58-9.93Q27.65-10.53 26.88-10.76L26.88-10.76L26.88-10.76Q26.10-11 25.20-11L25.20-11L25.20-11Q23.08-11 22.01-9.80L22.01-9.80L22.01-9.80Q20.95-8.60 20.95-6.05L20.95-6.05L20.95-6.05Q20.95-3.60 21.93-2.51L21.93-2.51L21.93-2.51Q22.90-1.43 25.03-1.43L25.03-1.43L25.03-1.43Q25.65-1.43 26.23-1.54L26.23-1.54L26.23-1.54Q26.80-1.65 27.63-1.95L27.63-1.95L27.63-3.20L27.60-4.98L29.33-5.10L29.33-0.60L29.33-0.60Q26.80 0.15 24.95 0.15L24.95 0.15L24.95 0.15Q22 0.15 20.49-1.44L20.49-1.44L20.49-1.44Q18.98-3.03 18.98-5.98L18.98-5.98L18.98-5.98Q18.98-9.18 20.69-10.88L20.69-10.88L20.69-10.88Q22.40-12.58 25.50-12.58L25.50-12.58ZM43.65-12.50L43.58-3.73L43.60 0L41.60 0L35.05-9.50L34.92-9.50L34.90-4.15L34.95 0L33.25 0L33.33-3.68L33.27-12.45L35.25-12.45L41.80-2.95L41.98-2.95L41.92-12.38L43.65-12.50ZM54.40-16.03L54.27-5L54.38 0L52.35 0L52.48-4.83L52.35-16.03L54.40-16.03ZM69.38-12.50L69.30-3.73L69.33 0L67.33 0L60.77-9.50L60.65-9.50L60.63-4.15L60.68 0L58.98 0L59.05-3.68L59-12.45L60.98-12.45L67.53-2.95L67.70-2.95L67.65-12.38L69.38-12.50Z" fill="#ffffff"></path></g></g><style>text {
  font-size: 64px;
  font-family: Arial Black;
  dominant-baseline: central;
  text-anchor: middle;
}</style></svg>