<svg width="127.05751953125px" height="54.807470703125px" xmlns="http://www.w3.org/2000/svg" viewBox="186.471240234375 47.5962646484375 127.05751953125 54.807470703125" style="background: rgba(0, 0, 0, 0);" preserveAspectRatio="xMidYMid"><defs><filter id="editing-hole" x="-100%" y="-100%" width="300%" height="300%"><feFlood flood-color="#ffffff" result="black"></feFlood><feMorphology operator="dilate" radius="2" in="SourceGraphic" result="erode"></feMorphology><feGaussianBlur in="erode" stdDeviation="4" result="blur"></feGaussianBlur><feOffset in="blur" dx="2" dy="2" result="offset"></feOffset><feComposite operator="atop" in="offset" in2="black" result="merge"></feComposite><feComposite operator="in" in="merge" in2="SourceGraphic" result="inner-shadow"></feComposite></filter></defs><g filter="url(#editing-hole)"><g transform="translate(211.51000094413757, 83.10500049591064)"><path d="M22.13-16.03L16.38 0L14.30 0L11.18-9.30L11-9.30L7.70 0L5.63 0L0.53-16.03L2.53-16.03L2.80-14.48L6.70-2.23L6.88-2.23L10.33-11.98L8.97-16.03L11.03-16.03L11.40-14.30L15.35-2.23L15.50-2.23L19.85-14.38L20.23-16.03L22.13-16.03ZM29.08-12.60L29.08-12.60Q31.80-12.60 33.26-11L33.26-11L33.26-11Q34.73-9.40 34.73-6.48L34.73-6.48L34.73-6.48Q34.73-3.30 33.16-1.56L33.16-1.56L33.16-1.56Q31.60 0.18 28.70 0.18L28.70 0.18L28.70 0.18Q26.00 0.18 24.53-1.46L24.53-1.46L24.53-1.46Q23.05-3.10 23.05-6.13L23.05-6.13L23.05-6.13Q23.05-9.22 24.63-10.91L24.63-10.91L24.63-10.91Q26.20-12.60 29.08-12.60L29.08-12.60ZM28.90-11.03L28.90-11.03Q26.93-11.03 25.96-9.90L25.96-9.90L25.96-9.90Q25.00-8.78 25.00-6.35L25.00-6.35L25.00-6.35Q25.00-3.75 25.95-2.58L25.95-2.58L25.95-2.58Q26.90-1.40 28.85-1.40L28.85-1.40L28.85-1.40Q30.85-1.40 31.83-2.55L31.83-2.55L31.83-2.55Q32.80-3.70 32.80-6.15L32.80-6.15L32.80-6.15Q32.80-8.68 31.84-9.85L31.84-9.85L31.84-9.85Q30.88-11.03 28.90-11.03L28.90-11.03ZM50.08-12.45L51.35 0L49.68 0L49.40-3.80L48.73-9.55L48.58-9.55L45.00-1.40L43.53-1.40L40.15-9.55L40.00-9.55L39.35-3.95L39.00 0L37.40 0L38.78-12.45L40.95-12.45L41.58-10.58L44.30-3.88L44.45-3.88L47.30-10.68L47.95-12.45L50.08-12.45ZM59.45-1.50L62.78-1.60L62.93-1.45L62.75 0L55.18 0L55.25-3.75L55.18-12.45L62.80-12.45L62.93-12.30L62.78-10.85L59.63-10.95L57.03-10.93L57.00-7.15L59.48-7.13L61.65-7.20L61.78-7.03L61.63-5.55L59.33-5.63L57.00-5.60L56.98-3.90L57.00-1.53L59.45-1.50ZM76.45-12.50L76.38-3.73L76.40 0L74.40 0L67.85-9.50L67.73-9.50L67.70-4.15L67.75 0L66.05 0L66.13-3.68L66.08-12.45L68.05-12.45L74.60-2.95L74.78-2.95L74.73-12.38L76.45-12.50Z" fill="#ffffff"></path></g></g><style>text {
  font-size: 64px;
  font-family: Arial Black;
  dominant-baseline: central;
  text-anchor: middle;
}</style></svg>