<svg width="81.87998046875px" height="54.807470703125px" xmlns="http://www.w3.org/2000/svg" viewBox="209.060009765625 47.5962646484375 81.87998046875 54.807470703125" style="background: rgba(0, 0, 0, 0);" preserveAspectRatio="xMidYMid"><defs><filter id="editing-hole" x="-100%" y="-100%" width="300%" height="300%"><feFlood flood-color="#ffffff" result="black"></feFlood><feMorphology operator="dilate" radius="2" in="SourceGraphic" result="erode"></feMorphology><feGaussianBlur in="erode" stdDeviation="4" result="blur"></feGaussianBlur><feOffset in="blur" dx="2" dy="2" result="offset"></feOffset><feComposite operator="atop" in="offset" in2="black" result="merge"></feComposite><feComposite operator="in" in="merge" in2="SourceGraphic" result="inner-shadow"></feComposite></filter></defs><g filter="url(#editing-hole)"><g transform="translate(227.625, 83.01500034332275)"><path d="M16.63-16.03L18.20 0L16.40 0L16.03-4.88L15.18-12.85L15-12.85L10.55-1.85L8.90-1.85L4.67-12.85L4.48-12.85L3.63-5.03L3.20 0L1.50 0L3.18-16.03L5.45-16.03L6.28-13.58L9.75-4.45L9.90-4.45L13.55-13.73L14.38-16.03L16.63-16.03ZM26.25-1.50L29.58-1.60L29.73-1.45L29.55 0L21.98 0L22.05-3.75L21.98-12.45L29.60-12.45L29.73-12.30L29.58-10.85L26.43-10.95L23.83-10.93L23.80-7.15L26.28-7.13L28.45-7.20L28.58-7.03L28.43-5.55L26.13-5.63L23.80-5.60L23.78-3.90L23.80-1.53L26.25-1.50ZM43.25-12.50L43.18-3.73L43.20 0L41.20 0L34.65-9.50L34.52-9.50L34.50-4.15L34.55 0L32.85 0L32.93-3.68L32.88-12.45L34.85-12.45L41.40-2.95L41.58-2.95L41.53-12.38L43.25-12.50Z" fill="#ffffff"></path></g></g><style>text {
  font-size: 64px;
  font-family: Arial Black;
  dominant-baseline: central;
  text-anchor: middle;
}</style></svg>