<svg width="149.837451171875px" height="54.807470703125px" xmlns="http://www.w3.org/2000/svg" viewBox="175.0812744140625 47.5962646484375 149.837451171875 54.807470703125" style="background: rgba(0, 0, 0, 0);" preserveAspectRatio="xMidYMid"><defs><filter id="editing-hole" x="-100%" y="-100%" width="300%" height="300%"><feFlood flood-color="#ffffff" result="black"></feFlood><feMorphology operator="dilate" radius="2" in="SourceGraphic" result="erode"></feMorphology><feGaussianBlur in="erode" stdDeviation="4" result="blur"></feGaussianBlur><feOffset in="blur" dx="2" dy="2" result="offset"></feOffset><feComposite operator="atop" in="offset" in2="black" result="merge"></feComposite><feComposite operator="in" in="merge" in2="SourceGraphic" result="inner-shadow"></feComposite></filter></defs><g filter="url(#editing-hole)"><g transform="translate(202.74999845027924, 83.10500049591064)"><path d="M8.55-16.03L13.90 0L11.85 0L11.48-1.60L10.58-4.35L6.98-4.42L3.73-4.35L2.75-1.70L2.35 0L0.35 0L6.23-16.03L8.55-16.03ZM7.15-6L10.03-6.05L7.43-13.95L7.25-13.95L4.35-6.05L7.15-6ZM22.55-6.48L22.55-6.48Q25.33-5.93 25.33-3.53L25.33-3.53L25.33-3.53Q25.33-1.73 23.93-0.83L23.93-0.83L23.93-0.83Q22.53 0.08 19.83 0.08L19.83 0.08L19.83 0.08Q18.20 0.08 16.70 0L16.70 0L16.78-3.75L16.70-12.45L20.60-12.48L20.60-12.48Q22.48-12.48 23.51-11.69L23.51-11.69L23.51-11.69Q24.55-10.90 24.55-9.45L24.55-9.45L24.55-9.45Q24.55-8.38 24.03-7.63L24.03-7.63L24.03-7.63Q23.50-6.88 22.55-6.48L22.55-6.48ZM22.58-9.22L22.58-9.22Q22.58-10.15 21.98-10.58L21.98-10.58L21.98-10.58Q21.38-11 20.05-11L20.05-11L18.53-11L18.50-7.15L20.73-7.08L20.73-7.08Q21.65-7.28 22.11-7.79L22.11-7.79L22.11-7.79Q22.58-8.30 22.58-9.22L22.58-9.22ZM20.05-1.35L20.05-1.35Q21.68-1.35 22.54-1.91L22.54-1.91L22.54-1.91Q23.40-2.48 23.40-3.58L23.40-3.58L23.40-3.58Q23.40-4.48 22.80-4.98L22.80-4.98L22.80-4.98Q22.20-5.48 20.98-5.65L20.98-5.65L18.50-5.63L18.48-3.90L18.53-1.43L18.53-1.43Q19.30-1.35 20.05-1.35L20.05-1.35ZM33.63-12.60L33.63-12.60Q36.35-12.60 37.81-11L37.81-11L37.81-11Q39.28-9.40 39.28-6.48L39.28-6.48L39.28-6.48Q39.28-3.30 37.71-1.56L37.71-1.56L37.71-1.56Q36.15 0.18 33.25 0.18L33.25 0.18L33.25 0.18Q30.55 0.18 29.08-1.46L29.08-1.46L29.08-1.46Q27.60-3.10 27.60-6.13L27.60-6.13L27.60-6.13Q27.60-9.22 29.18-10.91L29.18-10.91L29.18-10.91Q30.75-12.60 33.63-12.60L33.63-12.60ZM33.45-11.03L33.45-11.03Q31.48-11.03 30.51-9.90L30.51-9.90L30.51-9.90Q29.55-8.78 29.55-6.35L29.55-6.35L29.55-6.35Q29.55-3.75 30.50-2.58L30.50-2.58L30.50-2.58Q31.45-1.40 33.40-1.40L33.40-1.40L33.40-1.40Q35.40-1.40 36.38-2.55L36.38-2.55L36.38-2.55Q37.35-3.70 37.35-6.15L37.35-6.15L37.35-6.15Q37.35-8.68 36.39-9.85L36.39-9.85L36.39-9.85Q35.43-11.03 33.45-11.03L33.45-11.03ZM52.30-12.45L52.23-6.13L52.23-4.33L52.23-4.33Q52.25-2.20 50.94-1.03L50.94-1.03L50.94-1.03Q49.63 0.15 47.18 0.15L47.18 0.15L47.18 0.15Q44.75 0.15 43.48-1.01L43.48-1.01L43.48-1.01Q42.20-2.18 42.25-4.33L42.25-4.33L42.28-6.23L42.25-12.45L44.13-12.45L44.03-4.63L44.03-4.63Q44.00-3.05 44.81-2.25L44.81-2.25L44.81-2.25Q45.63-1.45 47.25-1.45L47.25-1.45L47.25-1.45Q48.85-1.45 49.68-2.25L49.68-2.25L49.68-2.25Q50.50-3.05 50.48-4.63L50.48-4.63L50.40-12.45L52.30-12.45ZM64.15-12.45L64.25-12.30L64.13-10.73L61.80-10.90L60.55-10.90L60.48-3.90L60.55 0L58.68 0L58.75-3.75L58.70-10.90L57.45-10.90L55.08-10.73L54.93-10.90L55.08-12.45L64.15-12.45ZM82.98-16.03L82.95-7.88L82.93-6.08L82.93-6.08Q82.98-3.13 81.38-1.48L81.38-1.48L81.38-1.48Q79.78 0.18 76.83 0.18L76.83 0.18L76.83 0.18Q74.00 0.18 72.49-1.40L72.49-1.40L72.49-1.40Q70.98-2.98 71.03-5.85L71.03-5.85L71.05-8.03L71.03-16.03L73.00-16.03L72.93-6.10L72.93-6.10Q72.90-3.85 73.93-2.71L73.93-2.71L73.93-2.71Q74.95-1.58 76.98-1.58L76.98-1.58L76.98-1.58Q79.00-1.58 80.05-2.65L80.05-2.65L80.05-2.65Q81.10-3.73 81.08-5.85L81.08-5.85L80.98-16.03L82.98-16.03ZM90.75-12.58L90.75-12.58Q92.28-12.58 93.80-11.98L93.80-11.98L93.48-10.13L93.18-10.05L93.18-10.05Q92.48-10.60 91.85-10.86L91.85-10.86L91.85-10.86Q91.23-11.13 90.55-11.13L90.55-11.13L90.55-11.13Q89.48-11.13 88.85-10.56L88.85-10.56L88.85-10.56Q88.23-10 88.23-9.28L88.23-9.28L88.23-9.28Q88.23-8.55 88.84-8.10L88.84-8.10L88.84-8.10Q89.45-7.65 90.73-7.10L90.73-7.10L90.73-7.10Q91.85-6.60 92.51-6.20L92.51-6.20L92.51-6.20Q93.18-5.80 93.66-5.14L93.66-5.14L93.66-5.14Q94.15-4.48 94.15-3.53L94.15-3.53L94.15-3.53Q94.15-2.55 93.63-1.71L93.63-1.71L93.63-1.71Q93.10-0.88 92.09-0.36L92.09-0.36L92.09-0.36Q91.08 0.15 89.68 0.15L89.68 0.15L89.68 0.15Q88.80 0.15 87.84-0.06L87.84-0.06L87.84-0.06Q86.88-0.28 86.05-0.70L86.05-0.70L86.28-2.68L86.53-2.78L86.53-2.78Q87.23-2.08 88.16-1.69L88.16-1.69L88.16-1.69Q89.10-1.30 89.90-1.30L89.90-1.30L89.90-1.30Q90.95-1.30 91.63-1.86L91.63-1.86L91.63-1.86Q92.30-2.43 92.30-3.23L92.30-3.23L92.30-3.23Q92.30-3.98 91.69-4.42L91.69-4.42L91.69-4.42Q91.08-4.88 89.78-5.48L89.78-5.48L89.78-5.48Q88.70-5.95 88.01-6.35L88.01-6.35L88.01-6.35Q87.33-6.75 86.85-7.41L86.85-7.41L86.85-7.41Q86.38-8.08 86.38-9.03L86.38-9.03L86.38-9.03Q86.38-10.03 86.91-10.83L86.91-10.83L86.91-10.83Q87.45-11.63 88.44-12.10L88.44-12.10L88.44-12.10Q89.43-12.58 90.75-12.58L90.75-12.58Z" fill="#ffffff"></path></g></g><style>text {
  font-size: 64px;
  font-family: Arial Black;
  dominant-baseline: central;
  text-anchor: middle;
}</style></svg>