<svg width="130.754931640625px" height="54.807470703125px" xmlns="http://www.w3.org/2000/svg" viewBox="184.6225341796875 47.5962646484375 130.754931640625 54.807470703125" style="background: rgba(0, 0, 0, 0);" preserveAspectRatio="xMidYMid"><defs><filter id="editing-hole" x="-100%" y="-100%" width="300%" height="300%"><feFlood flood-color="#ffffff" result="black"></feFlood><feMorphology operator="dilate" radius="2" in="SourceGraphic" result="erode"></feMorphology><feGaussianBlur in="erode" stdDeviation="4" result="blur"></feGaussianBlur><feOffset in="blur" dx="2" dy="2" result="offset"></feOffset><feComposite operator="atop" in="offset" in2="black" result="merge"></feComposite><feComposite operator="in" in="merge" in2="SourceGraphic" result="inner-shadow"></feComposite></filter></defs><g filter="url(#editing-hole)"><g transform="translate(209.45000004768372, 83.16499996185303)"><path d="M6.68-16.15L6.68-16.15Q8.40-16.15 10.25-15.40L10.25-15.40L9.93-13.48L9.58-13.38L9.58-13.38Q8.85-13.93 8.04-14.23L8.04-14.23L8.04-14.23Q7.23-14.53 6.43-14.53L6.43-14.53L6.43-14.53Q5.50-14.53 4.81-14.15L4.81-14.15L4.81-14.15Q4.13-13.78 3.76-13.18L3.76-13.18L3.76-13.18Q3.40-12.58 3.40-11.93L3.40-11.93L3.40-11.93Q3.40-11.25 3.81-10.74L3.81-10.74L3.81-10.74Q4.23-10.23 4.85-9.85L4.85-9.85L4.85-9.85Q5.48-9.47 6.55-8.95L6.55-8.95L6.55-8.95Q7.90-8.33 8.72-7.79L8.72-7.79L8.72-7.79Q9.55-7.25 10.14-6.43L10.14-6.43L10.14-6.43Q10.73-5.60 10.73-4.42L10.73-4.42L10.73-4.42Q10.73-3.18 10.05-2.13L10.05-2.13L10.05-2.13Q9.38-1.07 8.15-0.45L8.15-0.45L8.15-0.45Q6.93 0.18 5.35 0.18L5.35 0.18L5.35 0.18Q4.30 0.18 3.16-0.11L3.16-0.11L3.16-0.11Q2.02-0.40 1.05-0.95L1.05-0.95L1.30-3L1.58-3.13L1.58-3.13Q2.45-2.27 3.51-1.86L3.51-1.86L3.51-1.86Q4.58-1.45 5.55-1.45L5.55-1.45L5.55-1.45Q6.50-1.45 7.24-1.83L7.24-1.83L7.24-1.83Q7.98-2.20 8.36-2.83L8.36-2.83L8.36-2.83Q8.75-3.45 8.75-4.15L8.75-4.15L8.75-4.15Q8.75-5.20 7.95-5.84L7.95-5.84L7.95-5.84Q7.15-6.48 5.53-7.23L5.53-7.23L5.53-7.23Q4.20-7.88 3.40-8.39L3.40-8.39L3.40-8.39Q2.60-8.90 2.02-9.71L2.02-9.71L2.02-9.71Q1.45-10.53 1.45-11.70L1.45-11.70L1.45-11.70Q1.45-12.93 2.11-13.95L2.11-13.95L2.11-13.95Q2.78-14.98 3.96-15.56L3.96-15.56L3.96-15.56Q5.15-16.15 6.68-16.15L6.68-16.15ZM21.43-12.45L21.52-12.30L21.40-10.73L19.08-10.90L17.83-10.90L17.75-3.90L17.83 0L15.95 0L16.02-3.75L15.98-10.90L14.73-10.90L12.35-10.73L12.20-10.90L12.35-12.45L21.43-12.45ZM28.93-4.35L28.90-3.58L28.98 0L27.10 0L27.20-3.58L27.18-4.35L22.95-12.45L25.00-12.45L25.25-11.73L28.05-6.38L28.18-6.38L31.23-11.65L31.55-12.45L33.55-12.45L28.93-4.35ZM43.00-1.58L43.10-1.40L42.98 0L36.35 0L36.43-3.75L36.35-12.45L38.23-12.45L38.15-3.90L38.20-1.58L43.00-1.58ZM50.10-1.50L53.43-1.60L53.58-1.45L53.40 0L45.83 0L45.90-3.75L45.83-12.45L53.45-12.45L53.58-12.30L53.43-10.85L50.28-10.95L47.68-10.93L47.65-7.15L50.13-7.13L52.30-7.20L52.43-7.03L52.28-5.55L49.98-5.63L47.65-5.60L47.63-3.90L47.65-1.53L50.10-1.50ZM62.43-5.03L62.43-5.03Q63.95-2.70 65.80-0.45L65.80-0.45L65.78-0.20L65.78-0.20Q64.73 0.13 64.05 0.18L64.05 0.18L63.73-0.03L63.73-0.03Q61.83-2.90 60.85-4.55L60.85-4.55L58.50-4.53L58.50-3.90L58.55 0L56.70 0L56.78-3.75L56.70-12.45L60.95-12.48L60.95-12.48Q62.93-12.48 63.99-11.55L63.99-11.55L63.99-11.55Q65.05-10.63 65.05-8.88L65.05-8.88L65.05-8.88Q65.05-7.60 64.36-6.60L64.36-6.60L64.36-6.60Q63.68-5.60 62.43-5.03L62.43-5.03ZM58.55-10.95L58.53-6.08L60.88-6L60.88-6Q63.10-6.63 63.10-8.72L63.10-8.72L63.10-8.72Q63.10-9.83 62.45-10.38L62.45-10.38L62.45-10.38Q61.80-10.93 60.48-10.98L60.48-10.98L58.55-10.95ZM67.63-16L72.08-16L72.15-15.90L72.08-15.10L70.95-15.15L70.43-15.15L70.38-11.98L70.43-10.13L69.33-10.13L69.38-11.88L69.35-15.15L68.83-15.15L67.63-15.10L67.55-15.18L67.63-16ZM79.45-16L80.05-10.13L79.08-10.13L78.93-11.90L78.68-14.33L78.58-14.33L77.03-10.75L76.13-10.75L74.68-14.33L74.60-14.33L74.30-12.03L74.15-10.13L73.20-10.13L73.85-16L75.18-16L75.45-15.13L76.58-12.20L76.65-12.20L77.90-15.13L78.20-16L79.45-16Z" fill="#ffffff"></path></g></g><style>text {
  font-size: 64px;
  font-family: Arial Black;
  dominant-baseline: central;
  text-anchor: middle;
}</style></svg>