<svg width="135.812451171875px" height="54.807470703125px" xmlns="http://www.w3.org/2000/svg" viewBox="182.0937744140625 47.5962646484375 135.812451171875 54.807470703125" style="background: rgba(0, 0, 0, 0);" preserveAspectRatio="xMidYMid"><defs><filter id="editing-hole" x="-100%" y="-100%" width="300%" height="300%"><feFlood flood-color="#ffffff" result="black"></feFlood><feMorphology operator="dilate" radius="2" in="SourceGraphic" result="erode"></feMorphology><feGaussianBlur in="erode" stdDeviation="4" result="blur"></feGaussianBlur><feOffset in="blur" dx="2" dy="2" result="offset"></feOffset><feComposite operator="atop" in="offset" in2="black" result="merge"></feComposite><feComposite operator="in" in="merge" in2="SourceGraphic" result="inner-shadow"></feComposite></filter></defs><g filter="url(#editing-hole)"><g transform="translate(207.30000233650208, 83.16499996185303)"><path d="M6.68-16.15L6.68-16.15Q8.40-16.15 10.25-15.40L10.25-15.40L9.93-13.48L9.58-13.38L9.58-13.38Q8.85-13.93 8.04-14.23L8.04-14.23L8.04-14.23Q7.23-14.53 6.43-14.53L6.43-14.53L6.43-14.53Q5.50-14.53 4.81-14.15L4.81-14.15L4.81-14.15Q4.13-13.78 3.76-13.18L3.76-13.18L3.76-13.18Q3.40-12.58 3.40-11.93L3.40-11.93L3.40-11.93Q3.40-11.25 3.81-10.74L3.81-10.74L3.81-10.74Q4.23-10.23 4.85-9.85L4.85-9.85L4.85-9.85Q5.48-9.47 6.55-8.95L6.55-8.95L6.55-8.95Q7.90-8.33 8.72-7.79L8.72-7.79L8.72-7.79Q9.55-7.25 10.14-6.43L10.14-6.43L10.14-6.43Q10.73-5.60 10.73-4.42L10.73-4.42L10.73-4.42Q10.73-3.18 10.05-2.13L10.05-2.13L10.05-2.13Q9.38-1.07 8.15-0.45L8.15-0.45L8.15-0.45Q6.93 0.18 5.35 0.18L5.35 0.18L5.35 0.18Q4.30 0.18 3.16-0.11L3.16-0.11L3.16-0.11Q2.02-0.40 1.05-0.95L1.05-0.95L1.30-3L1.58-3.13L1.58-3.13Q2.45-2.27 3.51-1.86L3.51-1.86L3.51-1.86Q4.58-1.45 5.55-1.45L5.55-1.45L5.55-1.45Q6.50-1.45 7.24-1.83L7.24-1.83L7.24-1.83Q7.98-2.20 8.36-2.83L8.36-2.83L8.36-2.83Q8.75-3.45 8.75-4.15L8.75-4.15L8.75-4.15Q8.75-5.20 7.95-5.84L7.95-5.84L7.95-5.84Q7.15-6.48 5.53-7.23L5.53-7.23L5.53-7.23Q4.20-7.88 3.40-8.39L3.40-8.39L3.40-8.39Q2.60-8.90 2.02-9.71L2.02-9.71L2.02-9.71Q1.45-10.53 1.45-11.70L1.45-11.70L1.45-11.70Q1.45-12.93 2.11-13.95L2.11-13.95L2.11-13.95Q2.78-14.98 3.96-15.56L3.96-15.56L3.96-15.56Q5.15-16.15 6.68-16.15L6.68-16.15ZM23.70-12.45L23.63-6.13L23.63-4.33L23.63-4.33Q23.65-2.20 22.34-1.03L22.34-1.03L22.34-1.03Q21.02 0.15 18.58 0.15L18.58 0.15L18.58 0.15Q16.15 0.15 14.88-1.01L14.88-1.01L14.88-1.01Q13.60-2.18 13.65-4.33L13.65-4.33L13.68-6.23L13.65-12.45L15.53-12.45L15.43-4.63L15.43-4.63Q15.40-3.05 16.21-2.25L16.21-2.25L16.21-2.25Q17.03-1.45 18.65-1.45L18.65-1.45L18.65-1.45Q20.25-1.45 21.08-2.25L21.08-2.25L21.08-2.25Q21.90-3.05 21.88-4.63L21.88-4.63L21.80-12.45L23.70-12.45ZM32.03-12.48L32.03-12.48Q34-12.48 35.06-11.53L35.06-11.53L35.06-11.53Q36.13-10.58 36.13-8.78L36.13-8.78L36.13-8.78Q36.13-6.68 34.79-5.49L34.79-5.49L34.79-5.49Q33.45-4.30 31.10-4.30L31.10-4.30L29.58-4.30L29.58-3.90L29.63 0L27.78 0L27.85-3.75L27.78-12.45L32.03-12.48ZM31.70-5.75L31.70-5.75Q34.18-6.18 34.18-8.63L34.18-8.63L34.18-8.63Q34.18-9.80 33.51-10.38L33.51-10.38L33.51-10.38Q32.85-10.95 31.53-11L31.53-11L29.63-10.98L29.60-5.80L31.70-5.75ZM43.68-12.48L43.68-12.48Q45.65-12.48 46.71-11.53L46.71-11.53L46.71-11.53Q47.78-10.58 47.78-8.78L47.78-8.78L47.78-8.78Q47.78-6.68 46.44-5.49L46.44-5.49L46.44-5.49Q45.10-4.30 42.75-4.30L42.75-4.30L41.23-4.30L41.23-3.90L41.28 0L39.43 0L39.50-3.75L39.43-12.45L43.68-12.48ZM43.35-5.75L43.35-5.75Q45.83-6.18 45.83-8.63L45.83-8.63L45.83-8.63Q45.83-9.80 45.16-10.38L45.16-10.38L45.16-10.38Q44.50-10.95 43.18-11L43.18-11L41.28-10.98L41.25-5.80L43.35-5.75ZM55.98-12.60L55.98-12.60Q58.70-12.60 60.16-11L60.16-11L60.16-11Q61.63-9.40 61.63-6.48L61.63-6.48L61.63-6.48Q61.63-3.30 60.06-1.56L60.06-1.56L60.06-1.56Q58.50 0.18 55.60 0.18L55.60 0.18L55.60 0.18Q52.90 0.18 51.43-1.46L51.43-1.46L51.43-1.46Q49.95-3.10 49.95-6.13L49.95-6.13L49.95-6.13Q49.95-9.22 51.53-10.91L51.53-10.91L51.53-10.91Q53.10-12.60 55.98-12.60L55.98-12.60ZM55.80-11.03L55.80-11.03Q53.83-11.03 52.86-9.90L52.86-9.90L52.86-9.90Q51.90-8.78 51.90-6.35L51.90-6.35L51.90-6.35Q51.90-3.75 52.85-2.58L52.85-2.58L52.85-2.58Q53.80-1.40 55.75-1.40L55.75-1.40L55.75-1.40Q57.75-1.40 58.73-2.55L58.73-2.55L58.73-2.55Q59.70-3.70 59.70-6.15L59.70-6.15L59.70-6.15Q59.70-8.68 58.74-9.85L58.74-9.85L58.74-9.85Q57.78-11.03 55.80-11.03L55.80-11.03ZM70.72-5.03L70.72-5.03Q72.25-2.70 74.10-0.45L74.10-0.45L74.08-0.20L74.08-0.20Q73.03 0.13 72.35 0.18L72.35 0.18L72.03-0.03L72.03-0.03Q70.13-2.90 69.15-4.55L69.15-4.55L66.80-4.53L66.80-3.90L66.85 0L65 0L65.08-3.75L65-12.45L69.25-12.48L69.25-12.48Q71.22-12.48 72.29-11.55L72.29-11.55L72.29-11.55Q73.35-10.63 73.35-8.88L73.35-8.88L73.35-8.88Q73.35-7.60 72.66-6.60L72.66-6.60L72.66-6.60Q71.97-5.60 70.72-5.03L70.72-5.03ZM66.85-10.95L66.83-6.08L69.17-6L69.17-6Q71.40-6.63 71.40-8.72L71.40-8.72L71.40-8.72Q71.40-9.83 70.75-10.38L70.75-10.38L70.75-10.38Q70.10-10.93 68.78-10.98L68.78-10.98L66.85-10.95ZM84.25-12.45L84.35-12.30L84.23-10.73L81.90-10.90L80.65-10.90L80.58-3.90L80.65 0L78.78 0L78.85-3.75L78.80-10.90L77.55-10.90L75.18-10.73L75.03-10.90L75.18-12.45L84.25-12.45Z" fill="#ffffff"></path></g></g><style>text {
  font-size: 64px;
  font-family: Arial Black;
  dominant-baseline: central;
  text-anchor: middle;
}</style></svg>